<svg width="213" height="79" fill="none" xmlns="http://www.w3.org/2000/svg"><g clip-path="url(#a)" fill="#000"><path d="M121.83 78.77c.02-.52.05-1.03.05-1.55V0c9.68.64 19.14 2 28.57 3.97v17.77l-19.18-1.77v9.89l18.32 1.05v18.07h-18.34v10.03l19.17-.89v17.82c-2.17.3-4.36.68-6.57.9-6.11.61-12.23 1.16-18.34 1.75-.27.03-.54.13-.81.19h-2.88l.01-.01Zm-62.5302-3.1199v-1.4c0-22.84 0-45.68-.02-68.53004 0-1.08.25-1.51 1.37-1.68 6.57-1.03 13.12-2.17 19.69-3.210002 2.28-.36 4.14.570002 5.64 2.250002 2.43 2.73 3.56 6.1 4.42 9.55004 1.98 7.98 2.4 16.12 2.48 24.3.07 7.22-.08 14.43-1.04 21.59-.61 4.54-1.46 9.03-3.34 13.25-.85 1.91-1.9 3.69-3.56 5.02-1.44 1.15-3.05 1.6-4.91 1.38-5.3-.63-10.62-1.19-15.92-1.8-1.58-.18-3.14-.46-4.79-.71l-.02-.01Zm9.14-17.32c.13.06.2.11.27.11 2.47.14 4.94.27 7.41.41 2.88.16 4.54-.69 5.46-3.43.79-2.35 1.48-4.84 1.57-7.3.23-5.76.25-11.55 0-17.31-.11-2.57-.92-5.15-1.72-7.62-.67-2.04-2.32-3.06-4.58-2.86-1.63.14-3.27.2-4.89.34-1.18.1-2.35.26-3.51.39v37.26l-.01.01Zm-11.3801-53.48v17.46c-2.1.31-4.18.6-6.25.94-3.81.63-7.6201 1.27-11.4201 1.96-.29.05-.72.52-.72.8-.06 2.31-.03 4.61-.03 7.09l17.6701-1.75v17.47c-5.85-.12-11.66-.25-17.57-.37v7.86c6.04.51 12.0999 1.02 18.2699 1.54v17.41c-1.67-.28-3.35-.48-4.99-.85-6.87-1.55-13.72-3.18-20.59-4.73-1-.23-1.29-.67-1.29-1.69.03-17.86.03-35.72 0-53.58 0-1.02.36-1.42 1.27-1.76 8.34-3.19 16.8601-5.75 25.6701-7.8h-.02ZM165.67 73.66v-1.52c0-6.02-.03-12.0399.02-18.0599.01-1.66-.27-3.21-.76-4.79-4.62-14.87-9.2-29.7601-13.79-44.65005-.09-.29-.13-.59-.24-1.09 2.36.55 4.6 1.05 6.83 1.59 1.12.27 2.21.72 3.35.86 1.44.18 1.9.99 2.24 2.28C165.41 16.07 167.6 23.83 169.75 31.6101c.04.14.09.2899.23.7099 2.38-7.2 4.67-14.14 7.03-21.31 3.8 1.54 7.46 3.03 11.15 4.52-1.57 3.65-3.2 7.09-4.56 10.65-3.09 8.0501-6.05 16.15-9.04 24.24-.19.51-.24 1.09-.24 1.63-.02 6.14-.03 12.28.01 18.42 0 .89-.24 1.22-1.13 1.41-2.45.5-4.88 1.14-7.53 1.77v.01ZM7.41989 52.3v9.42c-2.5-1.16-4.81-2.21-7.080003-3.31-.21-.1-.32999999-.6-.32999999-.91-.01-9.34-.01-18.67.01999999-28 0-.41.32-.98.67-1.22C6.60989 24.34 12.8099 20.88 19.2399 17.87c3.9-1.83 6.69-.63 8.03 3.45.5 1.54.87 3.17.96 4.78.32 5.62.42 11.25-1.11 16.73-.54 1.92-1.52 3.71-2.33 5.65 2.72 1.29 3.31 4.17 3.47 7.03.24 4.37.11 8.77.14 13.15 0 .11-.06.22-.14.48-2.54-.82-5.08-1.61-7.59-2.49-.25-.09-.43-.69-.44-1.06-.04-2.39 0-4.78-.04-7.18-.01-.75-.12-1.51-.23-2.25-.21-1.38-1.01-2.23-2.4-2.45-3.22-.52-6.45-1.01-9.68001-1.51-.11-.02-.22.04-.46.08v.02Zm0-9.47c3.40001-.23 6.62001-.43 9.84001-.67 1.07-.08 1.92-.6 2.26-1.67.93-2.95.98-5.95.31-8.95-.26-1.16-1.06-1.58-2.19-1.25-3.21.93-6.4 1.91-9.58001 2.91-.26.08-.6.45-.61.69-.04 2.94-.03 5.88-.03 8.93v.01ZM212.22 36.15c-5.31-1.78-10.5-3.51-15.8-5.28v5.7c3.34.67 6.68 1.34 10.02 2.02 1.48.3 2.96.61 4.42 1 .31.08.75.52.76.81.06 2.15.03 4.3.03 6.64l-15.18.68v5.66l15.74-2.71c0 2.25.01 4.49-.02 6.74 0 .19-.3.45-.52.56-7.43 3.58-15.09 6.61-22.96 9.08-.06.02-.15-.03-.3-.07V16.01c2.89 1.41 5.7 2.63 8.36 4.11 4.9 2.73 9.72 5.63 14.58 8.44.66.38.92.84.89 1.62-.07 1.98-.02 3.96-.02 5.97Zm-92.08 3.7301c0 7-5.58 12.57-12.61 12.56-7 0-12.5598-5.59-12.5598-12.62 0-6.98 5.6198-12.51 12.6698-12.5 6.93.01 12.5 5.61 12.5 12.56Z"/></g><defs><clipPath id="a"><path fill="#fff" d="M0 0h212.25v78.77H0z"/></clipPath></defs></svg>